<svg width="32" height="34" viewBox="0 0 32 34" fill="none" xmlns="http://www.w3.org/2000/svg">
<rect y="2" width="32" height="32" rx="1" fill="#151B22"/>
<g filter="url(#filter0_i_738_2)">
<circle cx="6.5" cy="5.5" r="1.5" transform="rotate(-180 6.5 5.5)" fill="white"/>
</g>
<g filter="url(#filter1_i_738_2)">
<circle cx="25.5" cy="5.5" r="1.5" transform="rotate(-180 25.5 5.5)" fill="white"/>
</g>
<g filter="url(#filter2_i_738_2)">
<path d="M24 1.5C24 0.671573 24.6716 0 25.5 0C26.3284 0 27 0.671573 27 1.5V4.5C27 5.32843 26.3284 6 25.5 6C24.6716 6 24 5.32843 24 4.5V1.5Z" fill="#6AC0FF"/>
</g>
<g filter="url(#filter3_i_738_2)">
<path d="M5 1.5C5 0.671573 5.67157 0 6.5 0C7.32843 0 8 0.671573 8 1.5V4.5C8 5.32843 7.32843 6 6.5 6C5.67157 6 5 5.32843 5 4.5V1.5Z" fill="#6AC0FF"/>
</g>
<path d="M7.525 23V21.695L11.695 17.735C12.045 17.405 12.305 17.115 12.475 16.865C12.645 16.615 12.755 16.385 12.805 16.175C12.865 15.955 12.895 15.75 12.895 15.56C12.895 15.08 12.73 14.71 12.4 14.45C12.07 14.18 11.585 14.045 10.945 14.045C10.435 14.045 9.97 14.135 9.55 14.315C9.14 14.495 8.785 14.77 8.485 15.14L7.12 14.09C7.53 13.54 8.08 13.115 8.77 12.815C9.47 12.505 10.25 12.35 11.11 12.35C11.87 12.35 12.53 12.475 13.09 12.725C13.66 12.965 14.095 13.31 14.395 13.76C14.705 14.21 14.86 14.745 14.86 15.365C14.86 15.705 14.815 16.045 14.725 16.385C14.635 16.715 14.465 17.065 14.215 17.435C13.965 17.805 13.6 18.22 13.12 18.68L9.535 22.085L9.13 21.35H15.265V23H7.525ZM20.7705 23.15C19.9405 23.15 19.1905 22.94 18.5205 22.52C17.8605 22.1 17.3405 21.49 16.9605 20.69C16.5805 19.88 16.3905 18.9 16.3905 17.75C16.3905 16.6 16.5805 15.625 16.9605 14.825C17.3405 14.015 17.8605 13.4 18.5205 12.98C19.1905 12.56 19.9405 12.35 20.7705 12.35C21.6105 12.35 22.3605 12.56 23.0205 12.98C23.6805 13.4 24.2005 14.015 24.5805 14.825C24.9705 15.625 25.1655 16.6 25.1655 17.75C25.1655 18.9 24.9705 19.88 24.5805 20.69C24.2005 21.49 23.6805 22.1 23.0205 22.52C22.3605 22.94 21.6105 23.15 20.7705 23.15ZM20.7705 21.455C21.2605 21.455 21.6855 21.325 22.0455 21.065C22.4055 20.795 22.6855 20.385 22.8855 19.835C23.0955 19.285 23.2005 18.59 23.2005 17.75C23.2005 16.9 23.0955 16.205 22.8855 15.665C22.6855 15.115 22.4055 14.71 22.0455 14.45C21.6855 14.18 21.2605 14.045 20.7705 14.045C20.3005 14.045 19.8805 14.18 19.5105 14.45C19.1505 14.71 18.8655 15.115 18.6555 15.665C18.4555 16.205 18.3555 16.9 18.3555 17.75C18.3555 18.59 18.4555 19.285 18.6555 19.835C18.8655 20.385 19.1505 20.795 19.5105 21.065C19.8805 21.325 20.3005 21.455 20.7705 21.455Z" fill="white"/>
<defs>
<filter id="filter0_i_738_2" x="5" y="4" width="3" height="4" filterUnits="userSpaceOnUse" color-interpolation-filters="sRGB">
<feFlood flood-opacity="0" result="BackgroundImageFix"/>
<feBlend mode="normal" in="SourceGraphic" in2="BackgroundImageFix" result="shape"/>
<feColorMatrix in="SourceAlpha" type="matrix" values="0 0 0 0 0 0 0 0 0 0 0 0 0 0 0 0 0 0 127 0" result="hardAlpha"/>
<feOffset dy="1"/>
<feGaussianBlur stdDeviation="0.5"/>
<feComposite in2="hardAlpha" operator="arithmetic" k2="-1" k3="1"/>
<feColorMatrix type="matrix" values="0 0 0 0 0 0 0 0 0 0 0 0 0 0 0 0 0 0 0.25 0"/>
<feBlend mode="normal" in2="shape" result="effect1_innerShadow_738_2"/>
</filter>
<filter id="filter1_i_738_2" x="24" y="4" width="3" height="4" filterUnits="userSpaceOnUse" color-interpolation-filters="sRGB">
<feFlood flood-opacity="0" result="BackgroundImageFix"/>
<feBlend mode="normal" in="SourceGraphic" in2="BackgroundImageFix" result="shape"/>
<feColorMatrix in="SourceAlpha" type="matrix" values="0 0 0 0 0 0 0 0 0 0 0 0 0 0 0 0 0 0 127 0" result="hardAlpha"/>
<feOffset dy="1"/>
<feGaussianBlur stdDeviation="0.5"/>
<feComposite in2="hardAlpha" operator="arithmetic" k2="-1" k3="1"/>
<feColorMatrix type="matrix" values="0 0 0 0 0 0 0 0 0 0 0 0 0 0 0 0 0 0 0.25 0"/>
<feBlend mode="normal" in2="shape" result="effect1_innerShadow_738_2"/>
</filter>
<filter id="filter2_i_738_2" x="24" y="0" width="3" height="8" filterUnits="userSpaceOnUse" color-interpolation-filters="sRGB">
<feFlood flood-opacity="0" result="BackgroundImageFix"/>
<feBlend mode="normal" in="SourceGraphic" in2="BackgroundImageFix" result="shape"/>
<feColorMatrix in="SourceAlpha" type="matrix" values="0 0 0 0 0 0 0 0 0 0 0 0 0 0 0 0 0 0 127 0" result="hardAlpha"/>
<feOffset dy="2"/>
<feGaussianBlur stdDeviation="1"/>
<feComposite in2="hardAlpha" operator="arithmetic" k2="-1" k3="1"/>
<feColorMatrix type="matrix" values="0 0 0 0 0 0 0 0 0 0 0 0 0 0 0 0 0 0 0.25 0"/>
<feBlend mode="normal" in2="shape" result="effect1_innerShadow_738_2"/>
</filter>
<filter id="filter3_i_738_2" x="5" y="0" width="3" height="8" filterUnits="userSpaceOnUse" color-interpolation-filters="sRGB">
<feFlood flood-opacity="0" result="BackgroundImageFix"/>
<feBlend mode="normal" in="SourceGraphic" in2="BackgroundImageFix" result="shape"/>
<feColorMatrix in="SourceAlpha" type="matrix" values="0 0 0 0 0 0 0 0 0 0 0 0 0 0 0 0 0 0 127 0" result="hardAlpha"/>
<feOffset dy="2"/>
<feGaussianBlur stdDeviation="1"/>
<feComposite in2="hardAlpha" operator="arithmetic" k2="-1" k3="1"/>
<feColorMatrix type="matrix" values="0 0 0 0 0 0 0 0 0 0 0 0 0 0 0 0 0 0 0.25 0"/>
<feBlend mode="normal" in2="shape" result="effect1_innerShadow_738_2"/>
</filter>
</defs>
</svg>
